<svg width="16" height="18" viewBox="0 0 16 18" fill="none" xmlns="http://www.w3.org/2000/svg">
<path fill-rule="evenodd" clip-rule="evenodd" d="M14.0027 5.4613H14.756C15.2221 5.4613 15.6 5.06577 15.6 4.57786V3.35759C15.6 2.19574 14.7001 1.25387 13.5901 1.25387H12.1639L12.1101 1.15639C11.7243 0.457317 11.0037 0 10.1959 0H5.4041C4.59634 0 3.87575 0.457317 3.48993 1.15639L3.43613 1.25387H2.0099C0.899862 1.25387 0 2.19574 0 3.35759V4.57786C0 5.06577 0.377892 5.4613 0.844045 5.4613H1.59727V14.4334C1.59727 16.4032 3.12286 18 5.00478 18H10.5952C12.4771 18 14.0027 16.4032 14.0027 14.4334V5.4613ZM14.3754 4.17957H1.22457V3.35759C1.22457 2.90362 1.57618 2.5356 2.0099 2.5356H3.85715C4.13652 2.5356 4.38047 2.33767 4.45011 2.05448C4.56107 1.60324 4.95223 1.28173 5.4041 1.28173H10.1959C10.6478 1.28173 11.0389 1.60324 11.1499 2.05448C11.2195 2.33767 11.4635 2.5356 11.7429 2.5356H13.5901C14.0238 2.5356 14.3754 2.90362 14.3754 3.35759V4.17957ZM2.82184 5.4613H12.7782V14.4334C12.7782 15.6953 11.8008 16.7183 10.5952 16.7183H5.00478C3.79918 16.7183 2.82184 15.6953 2.82184 14.4334V5.4613Z" fill="#D9D9D9"/>
</svg>
