<svg width="21" height="21" viewBox="0 0 21 21" fill="none" xmlns="http://www.w3.org/2000/svg">
<path fill-rule="evenodd" clip-rule="evenodd" d="M14.356 3.47104L2.47478 15.3685C2.30375 15.5418 2.11386 15.8452 1.94317 16.259C1.776 16.6641 1.64446 17.1317 1.56449 17.5929C1.48396 18.0573 1.46066 18.4866 1.49209 18.8187C1.52094 19.1234 1.58543 19.2422 1.59889 19.267L1.60122 19.2715C1.61114 19.278 1.64512 19.2985 1.71838 19.3222C1.81446 19.3533 1.94856 19.3802 2.12144 19.3955C2.46794 19.4261 2.90649 19.4042 3.37333 19.3275C3.83799 19.2512 4.30484 19.1249 4.70683 18.9621C5.11855 18.7954 5.41392 18.61 5.5808 18.4413L5.58325 18.4388L17.2888 6.71717C17.3206 6.65517 17.3615 6.59707 17.411 6.54493C17.801 6.13491 18.0156 5.58832 18.0087 5.02187C18.0018 4.45538 17.774 3.91408 17.3741 3.51373C16.9744 3.11341 16.4344 2.88565 15.8696 2.87874M18.6789 7.33975C18.6425 7.42674 18.5892 7.50751 18.52 7.57685L6.63196 19.4812L6.63055 19.4826C6.26664 19.8499 5.76753 20.1279 5.26176 20.3327C4.7456 20.5417 4.17128 20.6949 3.61293 20.7866C3.05676 20.8779 2.49046 20.9124 1.99144 20.8684C1.52994 20.8277 0.976511 20.7081 0.596223 20.3569C0.193817 19.9854 0.063339 19.4153 0.020055 18.9581C-0.0270832 18.4601 0.0115888 17.894 0.10761 17.3402C0.204184 16.7833 0.363764 16.2102 0.576314 15.695C0.784969 15.1893 1.06403 14.6921 1.42363 14.3286L1.42607 14.3261L13.3166 2.41936L13.3294 2.40676C14.0182 1.74996 14.9362 1.38863 15.8876 1.40023C16.839 1.41185 17.7479 1.7955 18.4204 2.4689C19.0928 3.14224 19.4756 4.05199 19.4872 5.00382C19.4976 5.85589 19.2098 6.68143 18.6789 7.33975ZM14.356 3.47104C14.7647 3.08427 15.3075 2.87189 15.8696 2.87874L14.356 3.47104Z" fill="#404040"/>
<path fill-rule="evenodd" clip-rule="evenodd" d="M9.74437 20.3462C9.74437 20.0473 10.0749 19.8049 10.4825 19.8049H19.8326C20.2402 19.8049 20.5707 20.0473 20.5707 20.3462C20.5707 20.6452 20.2402 20.8876 19.8326 20.8876H10.4825C10.0749 20.8876 9.74437 20.6452 9.74437 20.3462Z" fill="#404040"/>
</svg>
