<svg width="31" height="26" viewBox="0 0 31 26" fill="none" xmlns="http://www.w3.org/2000/svg">
<path fill-rule="evenodd" clip-rule="evenodd" d="M6.14042 2.62549C3.81164 3.67897 2.10559 6.18469 2.10559 9.1727C2.10559 12.2253 3.36786 14.5782 5.17736 16.5948C6.66873 18.2567 8.47409 19.6341 10.2348 20.9775C10.653 21.2966 11.0686 21.6137 11.477 21.9323C12.2154 22.5084 12.874 23.0139 13.5089 23.3811C14.1441 23.7485 14.6555 23.9162 15.0901 23.9162C15.5247 23.9162 16.0361 23.7485 16.6713 23.3811C17.3062 23.0139 17.9648 22.5084 18.7033 21.9323C19.1116 21.6137 19.5273 21.2966 19.9454 20.9775C21.7061 19.6341 23.5115 18.2567 25.0028 16.5948C26.8124 14.5782 28.0746 12.2253 28.0746 9.1727C28.0746 6.18469 26.3685 3.67897 24.0397 2.62549C21.7773 1.60205 18.7374 1.87308 15.8487 4.84343C15.6502 5.04749 15.3763 5.16279 15.0901 5.16279C14.8039 5.16279 14.53 5.04749 14.3315 4.84343C11.4427 1.87308 8.40282 1.60205 6.14042 2.62549ZM15.0901 2.6736C11.8446 -0.200085 8.21036 -0.60208 5.26505 0.730294C2.15432 2.1375 0 5.40507 0 9.1727C0 12.8756 1.55884 15.7006 3.60298 17.9784C5.23994 19.8026 7.24355 21.3295 9.01311 22.6779C9.41424 22.9835 9.80334 23.2801 10.1734 23.5687C10.8924 24.1297 11.6643 24.7279 12.4466 25.1802C13.2286 25.6324 14.121 26 15.0901 26C16.0592 26 16.9516 25.6324 17.7336 25.1802C18.5159 24.7279 19.2877 24.1297 20.0068 23.5687C20.3768 23.2801 20.7659 22.9835 21.1671 22.6779C22.9367 21.3295 24.9402 19.8026 26.5772 17.9784C28.6213 15.7006 30.1802 12.8756 30.1802 9.1727C30.1802 5.40507 28.0259 2.1375 24.9151 0.730294C21.9698 -0.60208 18.3357 -0.200085 15.0901 2.6736Z" fill="#1C274C"/>
</svg>
