<svg width="32" height="26" viewBox="0 0 32 26" fill="none" xmlns="http://www.w3.org/2000/svg">
<path fill-rule="evenodd" clip-rule="evenodd" d="M8.10382 2.62555C5.78895 3.67903 4.09308 6.18475 4.09308 9.17276C4.09308 12.2254 5.34781 14.5783 7.14651 16.5949C8.62897 18.2568 10.4236 19.6342 12.1737 20.9775C12.5894 21.2966 13.0026 21.6138 13.4085 21.9323C14.1425 22.5084 14.7972 23.014 15.4283 23.3811C16.0597 23.7486 16.5681 23.9163 17.0001 23.9163C17.4321 23.9163 17.9404 23.7486 18.5718 23.3811C19.2029 23.014 19.8576 22.5084 20.5917 21.9323C20.9976 21.6138 21.4108 21.2966 21.8264 20.9775C23.5766 19.6342 25.3712 18.2568 26.8536 16.5949C28.6523 14.5783 29.907 12.2254 29.907 9.17276C29.907 6.18475 28.2111 3.67903 25.8962 2.62555C23.6474 1.60211 20.6256 1.87314 17.7541 4.84349C17.5568 5.04755 17.2846 5.16285 17.0001 5.16285C16.7155 5.16285 16.4433 5.04755 16.246 4.84349C13.3745 1.87314 10.3527 1.60211 8.10382 2.62555ZM17.0001 2.67366C13.7739 -0.200024 10.1614 -0.602019 7.23368 0.730355C4.14152 2.13757 2.00006 5.40513 2.00006 9.17276C2.00006 12.8757 3.5496 15.7006 5.58153 17.9785C7.20872 19.8027 9.20037 21.3295 10.9594 22.6779C11.3581 22.9835 11.7449 23.2801 12.1127 23.5688C12.8275 24.1298 13.5948 24.728 14.3723 25.1803C15.1497 25.6325 16.0367 26.0001 17.0001 26.0001C17.9634 26.0001 18.8504 25.6325 19.6278 25.1803C20.4054 24.728 21.1726 24.1298 21.8874 23.5688C22.2552 23.2801 22.642 22.9835 23.0408 22.6779C24.7998 21.3295 26.7914 19.8027 28.4186 17.9785C30.4505 15.7006 32.0001 12.8757 32.0001 9.17276C32.0001 5.40513 29.8586 2.13757 26.7664 0.730355C23.8387 -0.602019 20.2262 -0.200024 17.0001 2.67366Z" fill="#1C274C"/>
<path d="M1.00006 1.00006L31.0001 24.0001" stroke="#1C274C" stroke-width="2" stroke-linecap="round" stroke-linejoin="round"/>
</svg>
